<?xml version="1.0" encoding="UTF-8"?>
<svg xmlns="http://www.w3.org/2000/svg" width="840" height="636" style="background:#f8f7f4;font-family:sans-serif">
<text x="420" y="24" text-anchor="middle" font-size="14" font-weight="500" fill="#3d3d3a">GA nesting - 81.5% utilisation (9/9 parts)</text>
<rect x="40.0" y="40.0" width="760.0" height="456.0" fill="#fff" stroke="#999" stroke-width="1.5" stroke-dasharray="6 3"/>
<polygon points="47.6,488.4 161.6,488.4 161.6,412.4 47.6,412.4" fill="#AFA9EC" fill-opacity="0.72" stroke="#444" stroke-width="0.9" />
<text x="104.6" y="450.4" text-anchor="middle" dominant-baseline="central" font-size="9" fill="#222">S1</text>
<polygon points="47.6,207.2 47.6,397.2 161.6,397.2 161.6,207.2" fill="#9FE1CB" fill-opacity="0.72" stroke="#444" stroke-width="0.9" />
<text x="104.6" y="302.2" text-anchor="middle" dominant-baseline="central" font-size="9" fill="#222">M3 270°</text>
<polygon points="328.8,485.1 328.8,181.1 176.8,181.1 176.8,485.1" fill="#F5C4B3" fill-opacity="0.72" stroke="#444" stroke-width="0.9" />
<text x="252.8" y="333.1" text-anchor="middle" dominant-baseline="central" font-size="9" fill="#222">L1 90°</text>
<polygon points="50.9,165.9 240.9,165.9 240.9,51.9 50.9,51.9" fill="#FAC775" fill-opacity="0.72" stroke="#444" stroke-width="0.9" />
<text x="145.9" y="108.9" text-anchor="middle" dominant-baseline="central" font-size="9" fill="#222">M2</text>
<polygon points="332.1,165.9 332.1,51.9 256.1,51.9 256.1,165.9" fill="#B5D4F4" fill-opacity="0.72" stroke="#444" stroke-width="0.9" />
<text x="294.1" y="108.9" text-anchor="middle" dominant-baseline="central" font-size="9" fill="#222">S2 90°</text>
<polygon points="420.0,468.4 420.0,354.4 344.0,354.4 344.0,468.4" fill="#C0DD97" fill-opacity="0.72" stroke="#444" stroke-width="0.9" />
<text x="382.0" y="411.4" text-anchor="middle" dominant-baseline="central" font-size="9" fill="#222">S3 90°</text>
<polygon points="587.2,485.1 587.2,181.1 435.2,181.1 435.2,485.1" fill="#F4C0D1" fill-opacity="0.72" stroke="#444" stroke-width="0.9" />
<text x="511.2" y="333.1" text-anchor="middle" dominant-baseline="central" font-size="9" fill="#222">L2 90°</text>
<polygon points="347.3,165.9 537.3,165.9 537.3,51.9 347.3,51.9" fill="#D3D1C7" fill-opacity="0.72" stroke="#444" stroke-width="0.9" />
<text x="442.3" y="108.9" text-anchor="middle" dominant-baseline="central" font-size="9" fill="#222">M1</text>
<polygon points="420.0,337.8 420.0,223.8 344.0,223.8 344.0,337.8" fill="#F09595" fill-opacity="0.72" stroke="#444" stroke-width="0.9" />
<text x="382.0" y="280.8" text-anchor="middle" dominant-baseline="central" font-size="9" fill="#222">S4 90°</text>
<rect x="40.0" y="512.0" width="760.0" height="8" fill="#e0ddd5" rx="4"/>
<rect x="40.0" y="512.0" width="619.4" height="8" fill="#1D9E75" rx="4"/>
<text x="808.0" y="519.0" font-size="11" fill="#555">81.5%</text>
<text x="40.0" y="532.0" font-size="10" fill="#888">GA convergence</text>
<rect x="40.0" y="536.0" width="760.0" height="50.0" fill="#f0ede6" rx="3"/>
<text x="800.0" y="598.0" text-anchor="end" font-size="10" fill="#666">1 gens · 141.7s</text>
</svg>