<?xml version="1.0" encoding="UTF-8"?>
<svg xmlns="http://www.w3.org/2000/svg" width="840" height="576" style="background:#f8f7f4;font-family:sans-serif">
<text x="420" y="24" text-anchor="middle" font-size="14" font-weight="500" fill="#3d3d3a">Greedy nesting - 76.6% utilisation (9/9 parts)</text>
<rect x="40.0" y="40.0" width="760.0" height="456.0" fill="#fff" stroke="#999" stroke-width="1.5" stroke-dasharray="6 3"/>
<polygon points="47.6,488.4 351.6,488.4 351.6,336.4 47.6,336.4" fill="#AFA9EC" fill-opacity="0.72" stroke="#444" stroke-width="0.9" />
<text x="199.6" y="412.4" text-anchor="middle" dominant-baseline="central" font-size="9" fill="#222">L1</text>
<polygon points="47.6,321.2 351.6,321.2 351.6,169.2 47.6,169.2" fill="#9FE1CB" fill-opacity="0.72" stroke="#444" stroke-width="0.9" />
<text x="199.6" y="245.2" text-anchor="middle" dominant-baseline="central" font-size="9" fill="#222">L2</text>
<polygon points="480.8,486.0 480.8,296.0 366.8,296.0 366.8,486.0" fill="#F5C4B3" fill-opacity="0.72" stroke="#444" stroke-width="0.9" />
<text x="423.8" y="391.0" text-anchor="middle" dominant-baseline="central" font-size="9" fill="#222">M1 90°</text>
<polygon points="366.8,280.8 556.8,280.8 556.8,166.8 366.8,166.8" fill="#FAC775" fill-opacity="0.72" stroke="#444" stroke-width="0.9" />
<text x="461.8" y="223.8" text-anchor="middle" dominant-baseline="central" font-size="9" fill="#222">M2</text>
<polygon points="634.7,488.4 634.7,298.4 520.7,298.4 520.7,488.4" fill="#B5D4F4" fill-opacity="0.72" stroke="#444" stroke-width="0.9" />
<text x="577.7" y="393.4" text-anchor="middle" dominant-baseline="central" font-size="9" fill="#222">M3 90°</text>
<polygon points="648.0,280.8 648.0,166.8 572.0,166.8 572.0,280.8" fill="#C0DD97" fill-opacity="0.72" stroke="#444" stroke-width="0.9" />
<text x="610.0" y="223.8" text-anchor="middle" dominant-baseline="central" font-size="9" fill="#222">S1 90°</text>
<polygon points="725.9,488.4 725.9,374.4 649.9,374.4 649.9,488.4" fill="#F4C0D1" fill-opacity="0.72" stroke="#444" stroke-width="0.9" />
<text x="687.9" y="431.4" text-anchor="middle" dominant-baseline="central" font-size="9" fill="#222">S2 90°</text>
<polygon points="739.2,352.1 739.2,238.1 663.2,238.1 663.2,352.1" fill="#D3D1C7" fill-opacity="0.72" stroke="#444" stroke-width="0.9" />
<text x="701.2" y="295.1" text-anchor="middle" dominant-baseline="central" font-size="9" fill="#222">S3 90°</text>
<polygon points="667.9,222.9 781.9,222.9 781.9,146.9 667.9,146.9" fill="#F09595" fill-opacity="0.72" stroke="#444" stroke-width="0.9" />
<text x="724.9" y="184.9" text-anchor="middle" dominant-baseline="central" font-size="9" fill="#222">S4</text>
<rect x="40.0" y="512.0" width="760.0" height="8" fill="#e0ddd5" rx="4"/>
<rect x="40.0" y="512.0" width="582.2" height="8" fill="#1D9E75" rx="4"/>
<text x="808.0" y="519.0" font-size="11" fill="#555">76.6%</text>
</svg>